<svg width="524" height="498" viewBox="0 0 524 498" fill="none" xmlns="http://www.w3.org/2000/svg">
  <path d="M262 0l61.7 190h199.8L362 307.5l61.7 190L262 380 100.4 497.5l61.7-190L.5 190h199.8L262 0z" fill="#BAF1E7"/>
  <path d="M262 64l47.4 145.8h153.3l-124 90.1L386 445.7l-124-90.1-124 90.1 47.3-145.8-124-90.1h153.3L262 64z" fill="#FFF5D3"/>
  <path d="M262 120l34.8 107.1h112.6l-91 66.2L353 400.4 262 334.2l-91.1 66.2 34.8-107.1-91.1-66.2h112.6L262 120z" fill="#F8B2B2"/>
  <path d="M262 191l18.9 58h61l-49.4 36 18.9 58-49.4-36-49.4 36 18.9-58-49.4-36h61l18.9-58z" fill="#D4A9FF"/>
</svg>
