<svg width="524" height="498" viewBox="0 0 524 498" fill="none" xmlns="http://www.w3.org/2000/svg">
<path d="M262 0L323.741 190.02H523.541L361.9 307.459L423.641 497.48L262 380.041L100.359 497.48L162.1 307.459L0.459473 190.02H200.259L262 0Z" fill="#BAF1E7"/>
<path d="M262 64L309.372 209.797L462.673 209.797L338.65 299.905L386.023 445.703L262 355.595L137.977 445.703L185.35 299.905L61.3271 209.797L214.628 209.797L262 64Z" fill="#FFF5D3"/>
<path d="M262 120L296.8 227.102L409.414 227.102L318.307 293.295L353.107 400.398L262 334.205L170.893 400.398L205.693 293.295L114.586 227.102L227.2 227.102L262 120Z" fill="#F8B2B2"/>
<path d="M262 191L280.859 249.043H341.889L292.515 284.915L311.374 342.957L262 307.085L212.626 342.957L231.485 284.915L182.111 249.043H243.141L262 191Z" fill="#D4A9FF"/>
</svg>
